<svg width="36" height="36" viewBox="0 0 36 36" fill="none" xmlns="http://www.w3.org/2000/svg">
<rect width="36" height="36" fill="#F9F9F9"/>
<g clip-path="url(#clip0_2_57)">
<rect width="1920" height="5749" transform="translate(-428 -2678)" fill="white"/>
<rect width="36" height="36" rx="8" fill="#6C757D"/>
<path d="M15.7756 12.4144C17.7478 10.71 19.3421 9.02441 21.2261 7.77445C23.5828 6.21516 25.952 6.9159 27.7227 8.91709C29.5689 11.0003 29.5059 13.4056 27.6471 15.4573C25.8953 17.3953 23.9987 19.245 21.9382 20.8358C20.0604 22.2815 17.8487 22.4898 15.8701 20.8358C15.3975 20.4381 15.24 19.668 14.9375 19.0682C15.6432 18.8157 16.3364 18.4117 17.061 18.3359C18.2015 18.216 19.7516 18.7842 20.4448 18.2223C22.4549 16.5999 24.2003 14.6176 25.8386 12.6038C26.0781 12.3071 25.2652 10.4827 24.7611 10.3943C23.7907 10.2239 22.4297 10.489 21.705 11.1203C20.0982 12.5218 18.7686 14.1947 15.7819 12.4334L15.7756 12.4144Z" fill="white"/>
<path d="M20.0986 23.6439C18.1516 25.3296 16.6141 26.908 14.8308 28.1391C12.4868 29.7554 10.1175 29.1745 8.31536 27.1858C6.4691 25.1402 6.4691 22.659 8.24604 20.6009C10.0167 18.549 11.9197 16.3709 14.2385 15.1271C15.7445 14.319 18.1012 14.9819 20.0482 15.2092C20.4074 15.2534 20.6405 16.3582 20.9304 16.9706C20.3129 17.2358 19.7143 17.6714 19.0778 17.7346C17.8302 17.8545 16.1856 17.2674 15.3853 17.8735C13.413 19.3634 11.7306 21.289 10.1553 23.2273C9.86546 23.5871 10.5712 25.4812 10.9178 25.5064C12.0205 25.6011 13.4572 25.5001 14.2385 24.8435C15.8642 23.4798 17.1749 21.7752 20.0986 23.6376V23.6439Z" fill="white"/>
</g>
<defs>
<clipPath id="clip0_2_57">
<rect width="1920" height="5749" fill="white" transform="translate(-428 -2678)"/>
</clipPath>
</defs>
</svg>
