<svg width="12" height="12" viewBox="0 0 12 12" fill="none" xmlns="http://www.w3.org/2000/svg">
<path fill-rule="evenodd" clip-rule="evenodd" d="M0.00195312 5.99997C0.00195312 5.80106 0.0809709 5.61029 0.221623 5.46964C0.362275 5.32899 0.553041 5.24997 0.751953 5.24997H9.44145L6.22095 2.03097C6.08012 1.89014 6.00101 1.69913 6.00101 1.49997C6.00101 1.30081 6.08012 1.1098 6.22095 0.968971C6.36178 0.828141 6.55279 0.749023 6.75195 0.749023C6.95112 0.749023 7.14212 0.828141 7.28295 0.968971L11.783 5.46897C11.8528 5.53864 11.9082 5.6214 11.946 5.71252C11.9838 5.80364 12.0033 5.90132 12.0033 5.99997C12.0033 6.09862 11.9838 6.1963 11.946 6.28742C11.9082 6.37854 11.8528 6.4613 11.783 6.53097L7.28295 11.031C7.14212 11.1718 6.95112 11.2509 6.75195 11.2509C6.55279 11.2509 6.36178 11.1718 6.22095 11.031C6.08012 10.8901 6.00101 10.6991 6.00101 10.5C6.00101 10.3008 6.08012 10.1098 6.22095 9.96897L9.44145 6.74997H0.751953C0.553041 6.74997 0.362275 6.67095 0.221623 6.5303C0.0809709 6.38965 0.00195312 6.19888 0.00195312 5.99997Z" fill="#6C757D"/>
</svg>
