<svg width="28" height="28" viewBox="0 0 28 28" fill="none" xmlns="http://www.w3.org/2000/svg">
<path fill-rule="evenodd" clip-rule="evenodd" d="M1.67206 27.7146L26.0411 3.469V23.8704C26.0411 24.4114 26.4797 24.8499 27.0206 24.8499C27.5615 24.8499 28.0001 24.4114 28.0001 23.8704V0.97947C28.0001 0.889887 27.988 0.803114 27.9655 0.720676C27.8538 0.305552 27.4748 0 27.0244 0H27.0206H3.99692C3.45871 0 3.02241 0.4363 3.02241 0.974505C3.02241 1.51271 3.45871 1.94901 3.99692 1.94901L24.7985 1.94901L0.28688 26.3364C-0.0956266 26.717 -0.0956268 27.334 0.28688 27.7146C0.669387 28.0951 1.28955 28.0951 1.67206 27.7146Z" fill="#4C87FB"/>
</svg>
