<svg width="36" height="36" xmlns="http://www.w3.org/2000/svg">
  <rect stroke="#6c757d" rx="8" id="svg_3" height="35.969155" width="35.969157" y="0.012215" x="0.015422" stroke-width="0" fill="#6c757d"/>
  <path id="svg_1" fill="white" d="m15.7756,12.4144c1.9722,-1.7044 3.5665,-3.38999 5.4505,-4.63995c2.3567,-1.55929 4.7259,-0.85855 6.4966,1.14264c1.8462,2.08321 1.7832,4.48851 -0.0756,6.54021c-1.7518,1.938 -3.6484,3.7877 -5.7089,5.3785c-1.8778,1.4457 -4.0895,1.654 -6.0681,0c-0.4726,-0.3977 -0.6301,-1.1678 -0.9326,-1.7676c0.7057,-0.2525 1.3989,-0.6565 2.1235,-0.7323c1.1405,-0.1199 2.6906,0.4483 3.3838,-0.1136c2.0101,-1.6224 3.7555,-3.6047 5.3938,-5.6185c0.2395,-0.2967 -0.5734,-2.1211 -1.0775,-2.2095c-0.9704,-0.1704 -2.3314,0.0947 -3.0561,0.726c-1.6068,1.4015 -2.9364,3.0744 -5.9231,1.3131l-0.0063,-0.019z"/>
  <path id="svg_2" fill="white" d="m20.0986,23.6439c-1.947,1.6857 -3.4845,3.2641 -5.2678,4.4952c-2.344,1.6163 -4.7133,1.0354 -6.51544,-0.9533c-1.84626,-2.0456 -1.84626,-4.5268 -0.06932,-6.5849c1.77066,-2.0519 3.67366,-4.23 5.99246,-5.4738c1.506,-0.8081 3.8627,-0.1452 5.8097,0.0821c0.3592,0.0442 0.5923,1.149 0.8822,1.7614c-0.6175,0.2652 -1.2161,0.7008 -1.8526,0.764c-1.2476,0.1199 -2.8922,-0.4672 -3.6925,0.1389c-1.9723,1.4899 -3.6547,3.4155 -5.23,5.3538c-0.28984,0.3598 0.4159,2.2539 0.7625,2.2791c1.1027,0.0947 2.5394,-0.0063 3.3207,-0.6629c1.6257,-1.3637 2.9364,-3.0683 5.8601,-1.2059l0,0.0063z"/>

</svg>