<svg width="26" height="26" viewBox="0 0 26 26" fill="none" xmlns="http://www.w3.org/2000/svg">
<g clip-path="url(#clip0_929_5451)">
<path fill-rule="evenodd" clip-rule="evenodd" d="M13 24.375C16.0168 24.375 18.9101 23.1766 21.0433 21.0433C23.1766 18.9101 24.375 16.0168 24.375 13C24.375 9.98316 23.1766 7.08989 21.0433 4.95666C18.9101 2.82343 16.0168 1.625 13 1.625C9.98316 1.625 7.08989 2.82343 4.95666 4.95666C2.82343 7.08989 1.625 9.98316 1.625 13C1.625 16.0168 2.82343 18.9101 4.95666 21.0433C7.08989 23.1766 9.98316 24.375 13 24.375ZM13 26C16.4478 26 19.7544 24.6304 22.1924 22.1924C24.6304 19.7544 26 16.4478 26 13C26 9.55219 24.6304 6.24558 22.1924 3.80761C19.7544 1.36964 16.4478 0 13 0C9.55219 0 6.24558 1.36964 3.80761 3.80761C1.36964 6.24558 0 9.55219 0 13C0 16.4478 1.36964 19.7544 3.80761 22.1924C6.24558 24.6304 9.55219 26 13 26Z" fill="#4C87FB"/>
<path fill-rule="evenodd" clip-rule="evenodd" d="M13.0001 19.5C13.2155 19.5 13.4222 19.4144 13.5746 19.262C13.7269 19.1096 13.8126 18.903 13.8126 18.6875V9.27386L17.2998 12.7627C17.3753 12.8383 17.465 12.8982 17.5637 12.9391C17.6624 12.98 17.7682 13.001 17.8751 13.001C17.9819 13.001 18.0877 12.98 18.1864 12.9391C18.2851 12.8982 18.3748 12.8383 18.4503 12.7627C18.5258 12.6872 18.5858 12.5975 18.6267 12.4988C18.6675 12.4001 18.6886 12.2943 18.6886 12.1875C18.6886 12.0807 18.6675 11.9749 18.6267 11.8762C18.5858 11.7775 18.5258 11.6878 18.4503 11.6122L13.5753 6.73724C13.4998 6.66157 13.4102 6.60154 13.3115 6.56058C13.2127 6.51962 13.1069 6.49854 13.0001 6.49854C12.8932 6.49854 12.7874 6.51962 12.6886 6.56058C12.5899 6.60154 12.5003 6.66157 12.4248 6.73724L7.5498 11.6122C7.39723 11.7648 7.31152 11.9717 7.31152 12.1875C7.31152 12.4032 7.39723 12.6102 7.5498 12.7627C7.70237 12.9153 7.90929 13.001 8.12505 13.001C8.34081 13.001 8.54773 12.9153 8.7003 12.7627L12.1876 9.27386V18.6875C12.1876 18.903 12.2732 19.1096 12.4255 19.262C12.5779 19.4144 12.7846 19.5 13.0001 19.5Z" fill="#4C87FB"/>
</g>
<defs>
<clipPath id="clip0_929_5451">
<rect width="26" height="26" fill="white"/>
</clipPath>
</defs>
</svg>
