<svg width="20" height="21" viewBox="0 0 20 21" fill="none" xmlns="http://www.w3.org/2000/svg">
<path fill-rule="evenodd" clip-rule="evenodd" d="M4.14396 6.64511C4.19041 6.59854 4.24559 6.5616 4.30633 6.53639C4.36708 6.51119 4.4322 6.49821 4.49796 6.49821C4.56373 6.49821 4.62885 6.51119 4.6896 6.53639C4.75034 6.5616 4.80552 6.59854 4.85196 6.64511L10.498 12.2921L16.144 6.64511C16.2379 6.55122 16.3652 6.49847 16.498 6.49847C16.6307 6.49847 16.7581 6.55122 16.852 6.64511C16.9459 6.73899 16.9986 6.86633 16.9986 6.99911C16.9986 7.13188 16.9459 7.25922 16.852 7.35311L10.852 13.3531C10.8055 13.3997 10.7503 13.4366 10.6896 13.4618C10.6289 13.487 10.5637 13.5 10.498 13.5C10.4322 13.5 10.3671 13.487 10.3063 13.4618C10.2456 13.4366 10.1904 13.3997 10.144 13.3531L4.14396 7.35311C4.0974 7.30666 4.06046 7.25148 4.03525 7.19074C4.01005 7.12999 3.99707 7.06487 3.99707 6.99911C3.99707 6.93334 4.01005 6.86822 4.03525 6.80747C4.06046 6.74673 4.0974 6.69155 4.14396 6.64511Z" fill="#101113"/>
</svg>
