<svg width="22" height="22" viewBox="0 0 22 22" fill="none" xmlns="http://www.w3.org/2000/svg">
<g clip-path="url(#clip0_1032_6131)">
<path fill-rule="evenodd" clip-rule="evenodd" d="M9.35 17.6C4.79365 17.6 1.1 13.9063 1.1 9.35C1.1 4.79365 4.79365 1.1 9.35 1.1C13.9063 1.1 17.6 4.79365 17.6 9.35C17.6 13.9063 13.9063 17.6 9.35 17.6ZM0 9.35C0 4.18614 4.18614 0 9.35 0C14.5139 0 18.7 4.18614 18.7 9.35C18.7 11.734 17.8078 13.9096 16.339 15.5612L21.8389 21.0611C22.0537 21.2759 22.0537 21.6241 21.8389 21.8389C21.6241 22.0537 21.2759 22.0537 21.0611 21.8389L15.5612 16.339C13.9096 17.8078 11.734 18.7 9.35 18.7C4.18614 18.7 0 14.5139 0 9.35Z" fill="#6C757D" stroke="#6C757D" stroke-width="0.2" stroke-linecap="round"/>
</g>
<defs>
<clipPath id="clip0_1032_6131">
<rect width="22" height="22" fill="white"/>
</clipPath>
</defs>
</svg>
