<svg width="40" height="40" viewBox="0 0 40 40" fill="none" xmlns="http://www.w3.org/2000/svg">
<path d="M31.1816 22.4422V18.5028L28.6362 18.018C28.4543 17.3998 28.2119 16.8059 27.9028 16.2483L29.3574 14.1028L26.5695 11.315L24.424 12.7695C23.8543 12.4544 23.2604 12.2119 22.6483 12.0301L22.1634 9.49072H18.224L17.7392 12.0362C17.121 12.218 16.5271 12.4604 15.9695 12.7695L13.824 11.315L11.0362 14.1028L12.4907 16.2483C12.1816 16.8059 11.9392 17.3998 11.7574 18.018L9.21191 18.5028V22.4422L11.7513 22.9271C11.9271 23.5392 12.1756 24.1331 12.4907 24.7028L11.0362 26.8483L13.824 29.6362L15.9695 28.1816C16.5331 28.4907 17.121 28.7392 17.7392 28.915L18.224 31.4604H22.1634L22.6483 28.921C23.2604 28.7453 23.8543 28.4968 24.424 28.1816L26.5695 29.6362L29.3574 26.8483L27.9028 24.7028C28.218 24.1331 28.4604 23.5392 28.6422 22.9271L31.1816 22.4422ZM27.7937 26.7028L26.424 28.0725L24.4725 26.7453L24.1392 26.9513C23.4736 27.3602 22.7474 27.6609 21.9877 27.8422L21.6059 27.9331L21.1634 30.2483H19.2301L18.7877 27.9331L18.4119 27.8422C17.6483 27.6544 16.9271 27.3574 16.2665 26.9513L15.9331 26.7453L13.9816 28.0725L12.6119 26.7028L13.9392 24.7513L13.7331 24.418C13.3243 23.7524 13.0236 23.0262 12.8422 22.2665L12.7513 21.8847L10.4362 21.4422V19.5028L12.7513 19.0604L12.8422 18.6847C13.0301 17.921 13.3271 17.1998 13.7331 16.5392L13.9392 16.2059L12.6119 14.2544L13.9816 12.8847L15.9331 14.2119L16.2665 14.0059C16.9316 13.6005 17.6552 13.3 18.4119 13.115L18.7877 13.0241L19.2301 10.7089H21.1634L21.6059 13.0241L21.9877 13.115C22.7392 13.2907 23.4604 13.5938 24.1392 14.0059L24.4725 14.2119L26.424 12.8847L27.7937 14.2544L26.4665 16.2059L26.6725 16.5392C27.0779 17.2043 27.3784 17.928 27.5634 18.6847L27.6543 19.0604L29.9695 19.5028V21.4362L27.6543 21.8786L27.5634 22.2604C27.3821 23.0202 27.0814 23.7464 26.6725 24.4119L26.4665 24.7453L27.7937 26.7028Z" fill="#4C87FB"/>
<path d="M20.2 16.2606C17.8727 16.2606 15.9818 18.1515 15.9818 20.4788C15.9818 22.8061 17.8727 24.697 20.2 24.697C22.5273 24.697 24.4182 22.8061 24.4182 20.4788C24.4182 18.1515 22.5273 16.2606 20.2 16.2606ZM20.2 23.4788C19.4026 23.4789 18.6378 23.1623 18.0738 22.5986C17.5098 22.0348 17.1929 21.2701 17.1927 20.4727C17.1926 19.6753 17.5092 18.9105 18.0729 18.3465C18.6367 17.7825 19.4014 17.4656 20.1988 17.4655C20.5936 17.4654 20.9846 17.5431 21.3494 17.6941C21.7143 17.8451 22.0457 18.0665 22.325 18.3457C22.6042 18.6248 22.8258 18.9562 22.977 19.321C23.1281 19.6857 23.206 20.0767 23.2061 20.4715C23.2061 20.8664 23.1284 21.2573 22.9774 21.6222C22.8264 21.987 22.605 22.3185 22.3259 22.5977C22.0467 22.877 21.7153 23.0985 21.3506 23.2497C20.9858 23.4009 20.5948 23.4787 20.2 23.4788ZM2 20.6364C2 30.6788 10.1636 38.8424 20.2 38.8424C21.1091 38.8424 22.0121 38.7758 22.8909 38.6424L23.0182 39.3394C23.0606 39.5636 23.2121 39.7455 23.4242 39.8242L23.7818 39.9394L28.9636 36.0424C29.1636 35.897 29.2545 35.6606 29.2182 35.4182L29.1273 35.0182L22.8606 33.2C22.6424 33.1394 22.4121 33.1879 22.2424 33.3394L21.9758 33.6061L22.2121 34.9152C21.5455 35.0061 20.8727 35.0545 20.2 35.0545C12.2545 35.0545 5.78788 28.5879 5.78788 20.6364C5.78788 20.2485 5.80606 19.8545 5.83636 19.4727L4.62424 19.3758C4.59394 19.7879 4.57576 20.2121 4.57576 20.6364C4.57576 29.2545 11.5879 36.2667 20.2 36.2667C21.1394 36.2667 22.0909 36.1818 23.0242 36.0121L23.6242 35.903L23.3879 34.6121L27.3273 35.7515L24.0485 38.2182L23.8727 37.2303L23.2727 37.3394C22.2788 37.5273 21.2485 37.6182 20.2061 37.6182C10.8364 37.6182 3.21818 29.9939 3.21818 20.6242C3.21818 20.2364 3.2303 19.8424 3.26061 19.4545L2.04848 19.3697C2.01212 19.7939 2 20.2182 2 20.6364ZM3.66061 13.0242L4.76364 13.5333C5.10303 12.7939 5.50303 12.0667 5.95151 11.3818L4.93333 10.7152C4.45455 11.4545 4.0303 12.2303 3.66061 13.0242ZM2.28485 17.4182L3.47879 17.6303C3.62424 16.8242 3.82424 16.0242 4.08485 15.2485L2.93333 14.8667C2.65455 15.697 2.43636 16.5515 2.28485 17.4182ZM7.04242 9.88485C7.28485 9.58788 7.54545 9.29091 7.81212 9.00606L6.92727 8.17576C6.64242 8.47879 6.36364 8.8 6.10303 9.11515L7.04242 9.88485ZM8.92727 11.6485C9.1697 11.3455 9.42424 11.0485 9.69091 10.7697L8.80606 9.93939C8.52121 10.2424 8.24242 10.5636 7.98182 10.8909L8.92727 11.6485ZM7.09091 14.6303C7.3697 14.0242 7.69091 13.4303 8.05454 12.8667L7.03636 12.2121C6.64242 12.8242 6.29697 13.4667 5.99394 14.1212L7.09091 14.6303ZM4.83636 17.7515L6.0303 17.9758C6.15151 17.3212 6.32121 16.6667 6.53333 16.0364L5.38182 15.6485C5.15758 16.3333 4.9697 17.0424 4.83636 17.7515ZM38.4 20.6364C38.4 10.6 30.2364 2.4303 20.2 2.4303C19.5879 2.4303 18.9758 2.46061 18.3758 2.52121L18.2606 1.64242C18.2303 1.41818 18.0909 1.2303 17.8788 1.13333L17.5273 1L12.1697 4.6303C11.9636 4.7697 11.8545 5.00606 11.8909 5.25455L11.9697 5.66061L18.1152 7.78182C18.3273 7.85455 18.5636 7.81818 18.7394 7.67273L19.0182 7.41818L18.8667 6.26667C19.3091 6.22424 19.7515 6.20606 20.1939 6.20606C28.1394 6.20606 34.6061 12.6727 34.6061 20.6182C34.6061 20.9091 34.6 21.2 34.5818 21.4909L35.7939 21.5636C35.8121 21.2485 35.8182 20.9333 35.8182 20.6182C35.8242 12.0182 28.8182 5.00606 20.2 5.00606C19.503 5.00606 18.8 5.05455 18.1091 5.14545L17.5152 5.22424L17.6606 6.34545L13.7818 5.00606L17.1818 2.70303L17.3333 3.86667L17.9394 3.78788C18.6788 3.69091 19.4424 3.63636 20.2061 3.63636C29.5758 3.63636 37.1939 11.2606 37.1939 20.6242C37.1939 21.0182 37.1818 21.4121 37.1576 21.7939L38.3697 21.8727C38.3879 21.4727 38.4 21.0545 38.4 20.6364ZM37.1212 27.3697L35.9939 26.9212C35.7333 27.5697 35.4303 28.2121 35.097 28.8242L36.1576 29.4121C36.5212 28.7515 36.8485 28.0606 37.1212 27.3697ZM38.1697 23.5697L36.9758 23.3758C36.8667 24.0667 36.7091 24.7576 36.5151 25.4303L37.6788 25.7697C37.8848 25.0485 38.0485 24.3091 38.1697 23.5697ZM35.2727 30.8485L34.2667 30.1697C34.0487 30.4937 33.8182 30.8091 33.5758 31.1152L34.5273 31.8606C34.7879 31.5333 35.0364 31.1939 35.2727 30.8485ZM31.5515 29.5212L32.503 30.2667C32.697 30.0182 32.8848 29.7636 33.0667 29.5091L32.0727 28.8182C31.903 29.0606 31.7333 29.2909 31.5515 29.5212ZM34.6848 26.5333L33.5636 26.0788C33.3697 26.5576 33.1455 27.0364 32.8909 27.4909L33.9576 28.0727C34.2242 27.5697 34.4727 27.0485 34.6848 26.5333ZM35.6121 23.2667L34.4182 23.0667C34.3333 23.5818 34.2182 24.097 34.0727 24.5939L35.2364 24.9212C35.3879 24.3818 35.5151 23.8303 35.6121 23.2667Z" fill="#4C87FB"/>
</svg>
